<?xml version="1.0" encoding="utf-8"?>
<?xml-stylesheet type="text/xsl" href="rss1.xsl"?>
<rss version="2.0" xmlns:atom="http://www.w3.org/2005/Atom" xmlns:content="http://purl.org/rss/1.0/modules/content/" xmlns:dc="http://purl.org/dc/elements/1.1/" xmlns:media="http://search.yahoo.com/mrss/">
<channel>
 <title>Getty</title>
 <link>http://www.gettyimg.com/</link>
 <atom:link href="http://www.gettyimg.com/" rel="self" type="application/rss+xml" />

 
                <item>
                <title><![CDATA[【Albums (lossy)】Mariah, Gloria, Aretha, Celine, Shania - VH1 Divas Live (1998) [MP3 320 kbits 44100 Hz]]]></title>
                <link><![CDATA[https://sharemania.us/threads/mariah-gloria-aretha-celine-shania-vh1-divas-live-1998-mp3-320-kbits-44100-hz.238784/]]></link>
                <description><![CDATA[<article>
<blockquote class="messageText SelectQuoteContainer ugc baseHtml">
<div style="text-align: center"><img src="https://i.postimg.cc/GpWdvZdB/R-5780935-1421611188-6830-jpeg-jpg.jpg" class="bbCodeImage LbImage" alt="[​IMG]" data-url="https://i.postimg.cc/GpWdvZdB/R-5780935-1421611188-6830-jpeg-jpg.jpg" style=""> ​</div>Mariah Carey – My All<br>
Mariah Carey – Make It Happen<br>
Gloria Estefan – Turn The Beat Around<br>
Gloria Estefan – Heaven's What I Feel<br>
Gloria Estefan – Megamix: Dr. Beat/Conga/Rhythm Is Gonna Get You/1-2-3/Get On Your Feet<br>
Shania Twain – Man! I Feel Like A Woman!<br>
Shania Twain – You're Still The One<br>
Aretha Franklin And Mariah Carey – Chain Of Fools<br>
Celine Dion – River Deep, Mountain High<br>
Celine Dion, And Carole King – The Reason<br>
Celine Dion – My Heart Will Go On<br>
Celine Dion, Gloria Estefan, Shania Twain, Carole King– You've Got A Friend<br>
The Divas – A Natural Woman<br>
The Divas – Testimony<br>
The Divas – A Natural Woman (Radio Edit)<br>
<br>
<ul>
<li>Executive Producer – Wayne Isaak</li>
</ul><div style="text-align: center"><br>
<div class="bbCodeBlock bbCodeVfcHH HiddenContent">
<div class="attribution type">Hidden Content:</div>
<blockquote>You must either reply or click 'Like' to see the hidden information contained here.</blockquote>
</div></div>
<div class="messageTextEndMarker">&nbsp;</div>
</blockquote>
</article>]]></description>
                <author><![CDATA[Fan Made]]></author>
                </item>

                
                <item>
                <title><![CDATA[【Cinema Center】SERIES - Disney's Iwájú (2024) S01 DV 2160p WEB H.265 RABiDS]]></title>
                <link><![CDATA[https://sharemania.us/threads/disneys-iw%C3%A1j%C3%BA-2024-s01-dv-2160p-web-h-265-rabids.238785/]]></link>
                <description><![CDATA[<article>
<blockquote class="messageText SelectQuoteContainer ugc baseHtml">
<div style="text-align: center"><img src="https://m.media-amazon.com/images/M/MV5BOGY2NWE4OGEtODcwOS00ZTdlLWI5MjUtOGI3MTE0NDJhNWQ2XkEyXkFqcGdeQXVyMDM2NDM2MQ@@._V1_FMjpg_UY6060_.jpg" class="bbCodeImage LbImage" alt="[​IMG]" data-url="https://m.media-amazon.com/images/M/MV5BOGY2NWE4OGEtODcwOS00ZTdlLWI5MjUtOGI3MTE0NDJhNWQ2XkEyXkFqcGdeQXVyMDM2NDM2MQ@@._V1_FMjpg_UY6060_.jpg" style=""> ​</div><br>
<div style="text-align: center">A comic-style animated sci-fi series set in Lagos that explores themes of class, innocence and challenging the status quo.<br>
<br>
Download:<br>
<br>
<div class="bbCodeBlock bbCodeVfcHH HiddenContent">
<div class="attribution type">Hidden Content:</div>
<blockquote>You must either reply or click 'Like' to see the hidden information contained here.</blockquote>
</div></div>
<div class="messageTextEndMarker">&nbsp;</div>
</blockquote>
</article>]]></description>
                <author><![CDATA[sunnyillion]]></author>
                </item>

                
                <item>
                <title><![CDATA[【HD Live Performances】HDTV - The Veronicas - Here To Dance [Australian Idol 27 Feb 2024 7HD]_1080i_DD2.0_azamusic]]></title>
                <link><![CDATA[https://sharemania.us/threads/the-veronicas-here-to-dance-australian-idol-27-feb-2024-7hd-_1080i_dd2-0_azamusic.238786/]]></link>
                <description><![CDATA[<article>
<blockquote class="messageText SelectQuoteContainer ugc baseHtml">
<span style="font-size: 18px"><span style="color: #0000b3"><b>Veronicas performing their new song on Australian Idol !!!!!</b><br>
</span></span><br>
<span style="font-size: 15px"><span style="color: #000066">
<div class="ToggleTriggerAnchor bbCodeSpoilerContainer">
<button type="button" class="button bbCodeSpoilerButton ToggleTrigger Tooltip JsOnly" data-target="> .SpoilerTarget"><span>Spoiler: <span class="SpoilerTitle">Media Info</span></span></button>
<div class="SpoilerTarget bbCodeSpoilerText">Input #0, mpegts, from 'The Veronicas - Here To Dance [Australia Idol 27 Feb 2024 7HD]_azamusic.ts':<br>
Duration: 00:05:23.28, start: 1.424000, bitrate: 5967 kb/s<br>
Stream #0:0[0x100]: Video: h264 (High) ([27][0][0][0] / 0x001B), yuv420p(tv, top first), 1920x1080 [SAR 1:1 DAR 16:9], 25 fps, 25 tbr, 90k tbn<br>
Stream #0:1[0x101](eng): Audio: ac3 (AC-3 / 0x332D4341), 48000 Hz, stereo, fltp, 384 kb/s<br>
At least one output file must be specified</div>
</div><br>
<br>
</span></span>
<div class="bbCodeBlock bbCodeVfcHH HiddenContent">
<div class="attribution type">Hidden Content:</div>
<blockquote>You must reply before you can see the hidden data contained here.</blockquote>
</div><img src="https://www.aaronsouth.com/azamusic/veron_htd2024.png" class="bbCodeImage LbImage" alt="[​IMG]" data-url="https://www.aaronsouth.com/azamusic/veron_htd2024.png" style="">
<div class="messageTextEndMarker">&nbsp;</div>
</blockquote>
</article>]]></description>
                <author><![CDATA[azamusic]]></author>
                </item>

                </channel></rss>